<svg width="12" height="16" viewBox="0 0 12 16" fill="none" xmlns="http://www.w3.org/2000/svg"><path d="M11.25 3.98c-.055-.212-.17-.442-.256-.64C9.97.883 7.73 0 5.927 0 3.51 0 .846 1.622.492 4.963v.684c0 .03.011.283.023.413.2 1.592 1.454 3.285 2.395 4.877C3.918 12.645 4.967 14.322 6.005 16c.64-1.094 1.28-2.206 1.905-3.27.171-.312.368-.625.54-.926.115-.197.33-.398.43-.584 1.01-1.85 2.635-3.713 2.635-5.547v-.755c-.004-.197-.25-.893-.264-.938zM5.969 7.41c-.71 0-1.488-.357-1.871-1.335-.056-.156-.052-.469-.052-.499v-.442c0-1.25 1.064-1.82 1.986-1.82 1.139 0 2.017.912 2.017 2.05 0 1.135-.942 2.046-2.08 2.046z" fill="#12B6ED"/></svg>